<?xml version="1.0" standalone="no"?>
<!DOCTYPE svg PUBLIC "-//W3C//DTD SVG 20010904//EN"
 "http://www.w3.org/TR/2001/REC-SVG-20010904/DTD/svg10.dtd">
<svg version="1.0" xmlns="http://www.w3.org/2000/svg"
 width="800.000000pt" height="800.000000pt" viewBox="0 0 800.000000 800.000000"
 preserveAspectRatio="xMidYMid meet">
<metadata>
Created by potrace 1.15, written by Peter Selinger 2001-2017
</metadata>
<g transform="translate(0.000000,800.000000) scale(0.100000,-0.100000)"
fill="#000000" stroke="none">
<path d="M3574 7743 c-25 -5 -49 -45 -41 -67 7 -19 -22 -29 -56 -21 -30 8
-137 -12 -137 -26 0 -5 -6 -9 -13 -9 -8 0 -24 -11 -37 -25 l-23 -25 17 -81
c14 -67 15 -83 4 -90 -25 -16 -38 -9 -58 32 -12 22 -34 54 -50 71 -32 33 -36
31 -49 -35 -6 -26 -13 -32 -55 -44 -27 -8 -52 -11 -56 -6 -5 4 -25 62 -46 128
-38 122 -52 144 -91 145 -14 0 -23 6 -23 15 0 19 -21 19 -65 1 -24 -10 -35
-22 -35 -35 0 -11 -6 -24 -13 -28 -27 -16 -26 -54 5 -131 39 -97 58 -171 46
-178 -17 -11 -46 26 -68 86 -14 37 -29 62 -42 66 -25 7 -68 -21 -68 -45 0 -10
-7 -22 -16 -25 -10 -4 -13 -13 -9 -26 5 -15 2 -20 -11 -20 -9 0 -36 -12 -59
-27 -39 -25 -43 -31 -38 -58 3 -16 10 -38 15 -49 7 -12 6 -22 -2 -30 -8 -7
-14 -7 -16 -1 -2 6 -13 24 -23 42 -16 25 -25 30 -43 26 -32 -8 -58 -32 -52
-48 3 -7 -4 -23 -16 -35 -26 -26 -20 -32 -85 85 -52 94 -82 131 -113 140 -30
9 -38 -15 -17 -55 9 -18 14 -34 11 -37 -3 -3 -8 2 -12 11 -3 9 -12 16 -20 16
-16 0 -19 -16 -4 -25 6 -3 10 -31 10 -61 0 -34 6 -64 16 -80 16 -23 16 -26 -2
-39 -25 -19 -48 -19 -64 0 -23 28 -37 17 -36 -27 1 -35 -2 -43 -16 -42 -10 1
-18 -4 -18 -12 0 -19 -34 -18 -50 1 -14 17 -40 20 -40 6 0 -6 4 -13 10 -16 5
-3 8 -31 6 -61 -4 -47 -2 -53 9 -37 11 15 15 15 30 3 9 -8 14 -22 11 -33 -2
-10 -2 -17 1 -14 8 8 63 -44 63 -60 0 -10 -5 -11 -19 -3 -11 5 -27 7 -37 3
-13 -5 -15 -3 -10 8 4 8 -1 4 -11 -9 -21 -26 -47 -22 -64 10 -10 18 -12 18
-28 4 -10 -9 -20 -14 -23 -10 -3 3 -15 -8 -27 -25 -13 -18 -17 -32 -11 -36 14
-8 13 -25 -1 -25 -7 0 -53 -20 -104 -44 -54 -25 -98 -40 -105 -36 -7 4 -26 -1
-45 -14 -18 -11 -47 -29 -65 -39 -17 -9 -34 -26 -37 -37 -3 -11 -42 -47 -87
-79 -112 -82 -256 -206 -283 -246 l-23 -34 38 -28 c20 -16 68 -51 105 -77 72
-50 83 -75 37 -86 -18 -4 -32 -20 -50 -58 -22 -46 -28 -52 -56 -52 -18 0 -52
11 -75 25 -50 28 -74 32 -66 10 4 -8 2 -17 -3 -20 -19 -12 -9 -21 50 -48 33
-16 60 -32 60 -36 0 -5 -9 -20 -21 -35 -24 -31 -19 -59 17 -82 41 -27 25 -67
-17 -42 -15 9 -23 10 -26 2 -2 -6 -10 -19 -17 -29 -13 -18 -20 -15 -125 38
-101 51 -112 54 -121 38 -7 -15 -4 -21 18 -31 15 -7 41 -14 57 -16 17 -1 55
-16 87 -33 46 -26 55 -35 51 -52 -7 -27 -32 -21 -146 37 -88 44 -107 47 -107
18 0 -16 65 -48 80 -39 7 4 122 -46 139 -61 2 -2 1 -15 -3 -29 -8 -30 -33 -33
-68 -6 -29 23 -59 30 -65 15 -2 -6 11 -17 29 -24 68 -25 78 -30 78 -38 0 -11
-69 -8 -100 5 -33 14 -53 -3 -26 -23 11 -8 14 -14 7 -14 -7 0 -9 -5 -6 -10 4
-6 2 -17 -5 -24 -6 -8 -8 -26 -4 -40 4 -19 2 -26 -8 -26 -9 0 -20 -17 -27 -40
-6 -22 -18 -40 -26 -40 -22 0 -30 -22 -11 -32 23 -13 21 -37 -3 -31 -30 8 -35
-16 -6 -29 16 -7 24 -17 21 -27 -4 -14 -8 -37 -21 -116 -1 -5 -3 -16 -3 -24
-2 -16 -60 -8 -104 15 -15 8 -37 14 -48 14 -36 0 -17 -24 26 -33 94 -21 114
-28 114 -43 0 -10 -7 -13 -28 -9 -26 5 -26 5 -5 -6 22 -12 40 -45 29 -56 -3
-3 -27 2 -53 12 -26 9 -60 19 -76 22 -23 5 -27 2 -27 -19 0 -22 7 -27 65 -43
36 -9 65 -23 65 -30 0 -10 -12 -9 -57 1 -71 17 -104 12 -164 -25 -70 -44 -76
-107 -12 -132 24 -9 33 -54 13 -61 -17 -5 -30 -123 -19 -164 16 -56 37 -70
117 -77 84 -7 92 -10 85 -37 -4 -14 -20 -22 -61 -31 -31 -6 -67 -18 -79 -27
-22 -14 -23 -16 -7 -33 10 -11 25 -19 35 -19 26 0 30 -13 23 -75 l-7 -56 -131
1 c-145 2 -163 -2 -177 -36 -4 -13 -15 -24 -24 -24 -11 0 -15 -12 -15 -49 0
-40 3 -50 20 -54 11 -3 20 -11 20 -19 0 -27 53 -38 178 -36 81 2 125 -1 133
-9 17 -17 -16 -30 -99 -38 -64 -7 -73 -10 -78 -31 -7 -29 4 -64 21 -64 7 0 15
-9 18 -20 3 -11 14 -20 25 -20 15 0 18 -5 15 -24 -6 -28 21 -111 36 -112 6 -1
29 -2 51 -3 55 -1 54 -27 -2 -38 -32 -6 -42 -13 -45 -31 -4 -27 13 -62 30 -62
12 -1 52 -48 45 -55 -1 -2 -52 -13 -113 -25 -125 -26 -170 -42 -179 -66 -10
-26 4 -37 45 -31 41 5 54 -7 18 -16 -12 -3 -18 -10 -14 -16 3 -6 11 -9 16 -6
5 4 35 -1 66 -9 32 -8 72 -14 88 -13 27 2 30 -1 33 -30 3 -26 -2 -34 -25 -47
-26 -13 -26 -15 -8 -21 53 -18 62 -25 68 -54 8 -39 1 -58 -24 -64 -30 -8 -22
-27 11 -27 17 0 46 -6 65 -14 37 -16 54 -10 28 9 -15 11 -13 14 21 24 22 5 43
8 48 5 4 -3 8 -1 8 4 0 6 14 15 30 21 17 5 30 8 30 7 0 -2 -7 -20 -15 -41 -12
-28 -13 -40 -5 -51 9 -10 8 -17 -4 -30 -16 -15 -18 -15 -39 2 -21 19 -21 19
-7 0 14 -18 13 -19 -3 -13 -16 6 -16 5 -1 -18 9 -13 13 -29 9 -35 -10 -15 34
-60 51 -53 10 4 14 -5 15 -33 0 -22 6 -73 14 -114 7 -44 9 -79 4 -86 -19 -23
15 -153 46 -179 7 -5 30 -62 51 -125 39 -120 94 -249 133 -313 23 -38 24 -38
50 -21 14 10 44 32 66 49 111 89 160 105 149 47 -5 -24 0 -33 35 -61 57 -47
55 -71 -11 -138 -45 -46 -49 -53 -30 -53 12 0 22 -4 22 -10 0 -23 28 -7 63 35
40 47 56 49 77 9 15 -28 60 -33 80 -9 15 18 46 20 56 4 4 -7 -3 -19 -15 -28
l-22 -17 21 -27 22 -28 -87 -89 c-80 -81 -96 -110 -60 -110 15 0 55 51 55 72
0 18 108 111 120 103 24 -15 5 -48 -71 -125 -76 -76 -80 -83 -65 -99 16 -15
19 -14 46 19 15 19 27 37 25 40 -2 4 20 33 49 66 53 59 54 59 75 40 30 -27 27
-40 -20 -77 -30 -23 -37 -35 -29 -43 8 -8 21 1 50 34 21 25 42 42 46 38 4 -4
1 -14 -5 -22 -7 -8 -10 -20 -6 -26 4 -6 -3 -18 -14 -28 -28 -23 -31 -47 -6
-48 48 -2 55 -5 55 -19 0 -11 8 -15 27 -13 20 2 28 -2 28 -13 0 -9 15 -29 33
-44 18 -15 31 -34 28 -41 -8 -20 10 -26 33 -12 24 15 39 4 22 -16 -19 -22 7
-31 30 -10 18 16 21 16 70 -14 28 -18 56 -32 63 -32 29 0 35 -23 14 -54 -12
-17 -26 -35 -32 -41 -20 -18 -45 -63 -39 -69 14 -13 24 -3 63 64 22 39 44 70
49 70 28 0 14 -33 -41 -98 -15 -18 -28 -40 -28 -50 1 -13 7 -10 25 13 14 17
25 35 25 40 0 6 13 26 28 45 20 23 34 31 45 27 26 -10 21 -28 -23 -81 -43 -52
-46 -69 -13 -74 14 -2 29 12 57 53 20 31 41 53 47 50 9 -6 -1 -27 -49 -102
-10 -16 -12 -36 -7 -70 4 -26 8 -57 9 -68 1 -18 58 -65 78 -65 5 0 20 11 34
25 30 30 38 31 64 5 41 -41 115 -70 174 -67 30 2 57 5 59 8 2 2 16 34 31 72
32 75 37 81 67 72 13 -4 18 -12 14 -24 -7 -24 -10 -140 -3 -147 8 -7 50 15 64
34 9 12 17 13 50 2 78 -25 76 -16 28 -154 -42 -123 -46 -159 -18 -181 7 -5 14
-19 16 -30 4 -27 81 -50 99 -29 6 8 18 14 26 14 30 0 54 40 78 127 30 107 52
163 64 163 20 0 22 -43 5 -109 -15 -58 -16 -72 -5 -85 17 -21 70 -21 77 -1 4
10 13 13 25 10 11 -4 21 -1 24 7 4 10 23 13 73 10 63 -4 68 -2 79 19 7 13 13
33 15 44 2 11 12 21 22 23 17 4 18 -1 12 -40 -5 -37 -3 -45 14 -56 23 -14 70
-6 70 13 0 10 58 28 67 21 1 -1 -4 -51 -11 -112 -14 -111 -11 -163 11 -199 13
-20 13 -20 28 -1 8 11 15 32 15 48 0 15 5 28 10 28 6 0 10 -9 10 -20 0 -11 5
-20 10 -20 6 0 10 7 10 16 0 15 35 73 51 84 4 3 9 21 11 40 2 28 8 36 26 38
28 4 52 -14 52 -39 0 -25 19 -34 27 -12 12 32 30 42 69 40 34 -2 39 -5 42 -29
3 -28 32 -48 32 -22 0 17 35 71 60 92 13 11 11 13 -13 7 -27 -5 -28 -4 -25 30
1 20 9 41 18 46 13 9 12 10 -2 5 -15 -5 -18 1 -17 37 0 41 0 42 16 19 8 -12
22 -22 29 -22 8 0 14 -5 14 -10 0 -6 11 -8 25 -4 31 8 33 -3 3 -17 -21 -9 -20
-9 5 -4 25 5 27 3 22 -18 -6 -22 -3 -25 35 -31 43 -7 81 6 77 27 -3 15 14 14
131 -10 51 -10 96 -24 100 -31 11 -16 167 -28 176 -13 5 7 46 11 117 11 162 0
409 29 409 48 0 16 -25 72 -32 72 -11 0 -10 -18 2 -25 17 -10 11 -27 -7 -23
-10 2 -18 10 -19 18 -1 15 -6 32 -24 77 -10 23 2 39 20 28 14 -8 12 2 -6 54
-13 38 -13 46 -1 59 12 11 18 11 35 1 16 -10 26 -9 55 5 20 9 39 21 42 26 11
17 41 11 62 -12 11 -13 30 -44 41 -70 22 -47 42 -63 42 -33 0 8 7 15 15 15 21
0 19 7 -16 73 l-30 58 40 16 c40 16 55 40 40 64 -17 26 -10 59 11 59 14 0 20
-7 20 -21 0 -21 15 -22 62 -4 12 5 72 -88 88 -135 15 -43 41 -79 55 -74 8 4
15 10 15 16 0 19 -31 68 -43 68 -7 0 -27 30 -45 66 -26 52 -30 69 -21 80 6 8
15 14 19 14 9 0 90 -125 90 -139 0 -21 36 -71 50 -69 28 6 21 35 -18 78 -22
23 -50 65 -63 92 -23 49 -23 50 -4 64 31 23 41 17 63 -36 12 -28 26 -50 31
-50 18 0 12 24 -14 60 -25 34 -32 60 -16 60 5 0 12 -7 15 -16 4 -9 13 -14 21
-10 10 4 20 -6 30 -30 15 -35 43 -43 37 -10 -2 9 2 16 8 16 5 0 10 7 10 15 0
8 9 15 20 15 14 0 20 7 20 21 0 12 5 19 13 16 6 -3 31 6 55 20 23 13 47 21 52
18 18 -11 32 5 19 21 -10 12 -9 17 1 27 10 9 13 9 17 0 6 -17 33 -17 33 0 0 7
-5 18 -11 24 -9 9 5 27 52 72 71 68 67 69 122 -14 32 -49 57 -68 57 -43 0 7
-10 24 -23 38 -55 61 -77 92 -71 102 7 11 64 -39 64 -57 0 -6 14 -24 30 -40
46 -44 36 -13 -15 46 -42 50 -57 91 -36 103 11 7 58 -47 84 -94 14 -27 20 -30
32 -20 23 19 18 38 -26 93 -55 69 -30 75 30 8 41 -47 52 -53 102 -61 72 -11
83 -9 114 20 29 27 30 35 10 74 -16 30 -7 56 19 56 7 0 33 21 58 48 33 33 51
61 60 96 l13 49 -63 56 c-65 60 -71 71 -47 91 12 10 25 7 67 -14 28 -14 65
-26 81 -26 25 0 27 3 21 23 -3 12 -13 29 -20 38 -12 14 -10 22 22 63 20 26 40
46 44 44 5 -2 55 -37 111 -77 105 -78 133 -89 161 -64 11 10 18 11 23 4 11
-18 23 -12 51 25 24 30 26 39 16 55 -7 11 -10 24 -7 29 16 26 -10 61 -80 105
-77 47 -145 103 -145 117 0 20 55 5 105 -29 47 -31 59 -34 79 -25 24 10 41 58
25 68 -5 3 -6 16 -3 29 4 16 0 26 -13 34 -10 6 -13 11 -6 11 13 0 31 29 38 58
2 9 7 27 10 38 5 17 -1 28 -29 50 -56 45 -46 70 15 38 28 -14 32 -14 50 2 19
17 26 59 11 68 -10 6 -3 66 8 66 4 0 49 -20 101 -44 103 -48 148 -61 179 -51
31 10 24 33 -17 54 -37 20 -37 20 -10 21 15 0 27 1 27 3 0 8 -99 105 -122 120
-25 15 -26 20 -16 42 11 24 23 29 61 26 23 -3 22 15 -3 41 -26 29 -25 48 3 48
16 0 19 3 8 9 -8 5 -11 16 -7 26 5 13 14 16 36 11 39 -7 38 4 -5 51 -19 21
-35 44 -35 51 0 7 -4 11 -10 7 -5 -3 -7 -12 -3 -20 7 -19 -10 -19 -45 -1 -15
7 -44 16 -64 20 -39 7 -53 26 -19 26 10 0 22 8 25 17 6 15 8 15 16 3 7 -11 10
-7 10 17 0 30 2 31 34 27 27 -3 37 1 50 21 21 31 21 71 0 83 -15 8 -13 16 18
68 20 33 45 78 57 102 12 23 27 42 34 42 20 1 68 115 66 157 -2 21 14 90 33
153 20 63 43 147 51 187 8 39 18 76 21 82 4 5 4 22 0 36 -5 19 -12 26 -28 24
-11 0 -47 -1 -80 0 -53 1 -58 3 -53 21 5 18 0 20 -38 20 -24 0 -50 3 -59 6
-21 8 -21 30 0 38 12 5 14 16 10 48 -3 24 -8 52 -11 63 -10 32 27 57 97 67 34
4 63 10 65 11 1 2 -3 16 -10 31 -10 22 -17 26 -37 21 -14 -3 -44 -8 -67 -12
l-43 -6 0 41 c0 46 -18 62 -68 62 -29 0 -46 18 -34 36 4 5 16 9 27 9 15 0 21
8 25 35 5 35 5 35 75 47 39 6 91 14 118 18 39 5 47 10 47 27 0 18 -4 20 -36
15 -20 -3 -44 -13 -53 -21 -9 -7 -49 -17 -89 -21 -73 -7 -74 -7 -70 16 3 20
13 26 78 40 41 10 77 16 81 14 3 -3 23 0 43 6 27 7 36 15 34 27 -4 20 -63 19
-88 -2 -13 -11 -112 -36 -146 -36 -16 0 -25 53 -11 62 7 4 26 8 44 8 37 0 63
9 63 21 0 12 -41 11 -79 -2 -18 -6 -34 -9 -37 -6 -11 10 43 55 71 59 34 4 47
28 15 28 -12 0 -18 5 -15 10 3 6 0 13 -8 16 -9 3 -12 14 -9 30 3 18 0 24 -13
24 -12 0 -15 5 -10 20 3 10 2 36 -4 56 -7 27 -7 42 1 51 12 15 4 28 -19 28 -9
0 -18 6 -20 13 -3 6 2 12 11 12 9 0 16 7 16 16 0 12 -7 15 -25 12 -27 -6 -40
9 -65 72 -8 19 -20 41 -27 48 -28 28 -15 38 90 67 31 8 57 20 57 25 0 17 -32
11 -98 -17 -46 -19 -66 -23 -74 -15 -8 8 -2 15 23 26 32 15 32 16 6 11 -33 -7
-67 2 -67 16 0 11 48 33 108 48 45 13 48 17 28 44 -13 16 -17 16 -79 -8 -89
-33 -96 -14 -10 27 61 30 71 38 96 88 32 63 32 71 11 112 -15 29 -18 30 -59
25 -39 -6 -45 -4 -51 16 -5 12 -7 25 -6 30 4 14 -47 102 -70 122 -65 57 -68
58 -149 10 -54 -33 -76 -41 -86 -33 -20 16 -16 30 22 73 20 22 42 53 50 69
l15 29 -48 -5 c-48 -5 -49 -4 -80 40 -23 33 -29 49 -21 58 5 7 54 42 107 79
99 68 126 100 110 128 -5 9 -4 18 2 22 17 10 11 38 -14 69 -19 23 -29 27 -50
22 -14 -3 -26 -2 -26 3 0 5 -13 9 -29 9 -21 -1 -54 -20 -108 -64 -43 -35 -82
-63 -87 -64 -5 0 -17 -7 -27 -16 -10 -9 -22 -13 -27 -10 -20 12 1 45 54 88 36
29 54 50 54 65 0 26 -40 56 -62 48 -8 -3 -21 1 -28 10 -12 14 -15 14 -33 -2
-11 -10 -17 -13 -14 -6 4 6 -13 28 -41 51 -51 43 -60 43 -110 -1 -17 -16 -25
-18 -34 -9 -9 9 -5 19 19 44 25 27 29 37 21 54 -12 26 -52 46 -65 33 -9 -9
-63 10 -63 22 0 3 33 41 73 85 83 90 107 125 107 153 0 33 -20 35 -51 5 -28
-27 -53 -28 -31 -1 16 19 2 30 -17 13 -9 -7 -34 -19 -56 -26 -22 -7 -52 -24
-67 -37 l-27 -25 -25 19 c-23 19 -24 22 -10 48 18 36 14 40 -32 25 -32 -11
-39 -10 -49 4 -7 9 -18 16 -25 16 -9 0 -11 11 -6 40 5 32 3 40 -9 40 -8 0 -15
-4 -15 -8 0 -4 -27 -16 -60 -25 -64 -19 -80 -32 -30 -25 34 5 38 -4 13 -30
-10 -10 -31 -38 -48 -62 l-29 -45 -9 43 c-4 23 -11 42 -15 42 -4 0 -13 4 -21
9 -11 7 -11 14 4 38 17 29 17 30 -7 55 -25 28 -55 37 -76 24 -9 -5 -37 17 -90
75 -42 45 -77 87 -77 94 0 30 -113 124 -134 111 -5 -3 -28 9 -52 28 -63 48
-218 150 -259 171 -19 9 -53 34 -75 54 -22 20 -31 25 -20 12 20 -24 20 -24 0
-17 -49 20 -50 19 -69 -41 -26 -83 -28 -92 -11 -55 8 17 19 32 24 32 4 0 6 11
4 24 -3 14 1 25 9 28 16 7 23 -37 8 -47 -6 -3 -10 -15 -10 -26 0 -10 -4 -19
-9 -19 -5 0 -7 -8 -4 -19 6 -23 -13 -37 -32 -21 -10 9 -15 6 -20 -12 -16 -57
-28 -78 -46 -78 -11 0 -19 7 -19 15 0 20 -34 36 -81 37 -58 1 -74 28 -60 104
14 76 15 73 -19 72 -32 -1 -35 -5 -45 -80 -7 -50 -23 -60 -63 -39 -23 12 -51
-9 -61 -46 -5 -19 -15 -29 -30 -31 -21 -3 -22 -1 -16 27 6 29 4 32 -25 38
l-32 6 6 66 c3 36 11 87 18 112 12 50 7 79 -15 79 -18 0 -30 -69 -16 -86 7 -8
6 -34 -2 -81 -14 -77 -19 -86 -42 -77 -21 8 -22 51 -2 164 8 47 15 86 15 88 0
1 -11 2 -25 2 -24 0 -24 -1 -23 -92 1 -51 -2 -108 -6 -125 -7 -30 -10 -32 -34
-27 -15 4 -29 8 -31 10 -2 2 0 29 6 59 8 44 7 55 -4 55 -7 0 -14 -6 -15 -12
-2 -18 -5 -49 -7 -75 -1 -28 -21 -31 -21 -3 0 11 -5 20 -11 20 -8 0 -9 13 -5
40 5 31 3 40 -8 40 -8 0 -16 -5 -18 -12 -3 -7 -21 -12 -44 -11 -21 1 -42 -4
-46 -10 -5 -9 -10 -9 -20 1 -6 6 -30 12 -51 12 -25 0 -44 6 -52 17 -13 18 -35
10 -35 -13 0 -21 -17 -17 -23 6 -7 25 -27 26 -27 1 0 -29 -22 -40 -83 -43 -31
-1 -57 -6 -57 -10 0 -4 -9 -8 -20 -8 -18 0 -20 7 -20 85 0 70 -3 85 -16 85
-13 0 -14 -12 -8 -85 5 -62 4 -85 -5 -85 -6 0 -16 10 -21 23 -9 22 -9 22 -9 1
-1 -26 -26 -49 -42 -38 -8 4 -10 26 -6 68 6 68 -1 90 -29 84 -17 -3 -19 -12
-17 -76 2 -57 -1 -72 -12 -72 -11 0 -15 13 -15 49 0 65 -10 89 -58 139 -40 41
-69 53 -108 45z m846 -698 c428 -55 812 -187 1173 -405 795 -477 1323 -1288
1439 -2210 17 -140 17 -582 -1 -720 -124 -967 -683 -1792 -1536 -2268 -959
-535 -2180 -486 -3097 124 -153 102 -287 204 -287 219 -1 6 43 48 96 95 53 47
144 136 202 199 98 105 112 116 197 156 50 23 94 47 98 53 4 7 -6 6 -26 -2
-18 -8 -49 -17 -68 -21 -31 -6 -33 -5 -20 8 8 8 49 29 90 48 76 34 193 99 188
105 -2 1 -24 -2 -49 -7 -29 -6 -54 -6 -70 0 -23 9 -23 10 8 10 39 1 194 55
250 87 23 14 57 45 74 71 l32 46 -66 -6 c-37 -3 -67 -4 -67 -2 0 8 82 48 145
72 74 28 110 29 155 4 19 -11 46 -25 60 -31 90 -41 149 -172 151 -336 l0 -49
19 60 c26 82 39 103 76 125 44 28 59 25 84 -16 49 -84 55 -160 24 -328 -31
-171 -7 -207 50 -76 96 220 277 393 477 455 31 10 63 15 71 12 8 -3 36 -41 61
-84 26 -43 60 -92 77 -108 16 -16 30 -33 30 -38 0 -21 60 -135 74 -140 9 -4
13 -13 10 -21 -3 -8 16 -36 48 -69 54 -55 55 -55 129 -62 69 -6 102 -3 302 30
15 2 27 0 27 -6 0 -6 -6 -7 -12 -3 -7 4 -6 -1 3 -12 9 -10 22 -42 28 -70 9
-38 24 -63 62 -102 48 -50 61 -70 37 -56 -7 4 -4 -2 6 -14 11 -12 24 -22 29
-22 6 0 2 7 -9 15 -18 15 -18 15 8 9 l28 -6 -5 63 c-3 35 -8 84 -10 108 -3 23
-2 61 1 82 l7 39 73 0 c40 0 95 4 121 9 26 5 65 12 86 16 27 4 37 11 37 24 0
11 6 21 14 24 18 7 53 101 71 187 8 36 26 119 40 185 15 66 28 127 29 135 2 8
7 28 11 43 9 35 -1 48 -13 17 -6 -17 -11 12 -15 96 -3 65 -8 128 -12 139 -6
17 -3 16 15 -5 12 -13 28 -25 37 -26 44 -7 193 -173 269 -300 9 -16 16 -17 39
-9 71 25 58 74 -39 155 -82 68 -105 105 -86 140 10 19 18 22 56 17 35 -4 54
-14 94 -51 45 -43 90 -60 90 -36 0 6 -34 44 -75 85 -74 74 -85 97 -69 139 8
22 24 20 90 -9 33 -15 65 -23 77 -19 20 6 20 9 1 130 -4 27 0 53 10 78 9 21
16 40 16 41 0 2 -12 6 -27 10 -120 30 -269 140 -291 214 -16 52 -15 114 2 156
17 39 90 91 143 101 39 7 41 17 8 55 -38 47 -26 57 65 56 l79 -2 35 42 c74 86
160 114 376 122 141 6 145 7 148 29 l3 22 -160 0 c-88 0 -162 4 -165 9 -3 5 3
20 14 34 44 56 18 70 -139 77 -208 10 -232 34 -228 232 1 95 1 98 -31 144 -18
25 -31 52 -28 59 2 7 48 27 101 45 114 38 161 73 167 125 2 20 2 37 0 40 -7 7
-127 -42 -208 -84 -43 -23 -84 -41 -93 -41 -33 0 -144 82 -235 174 -47 48 -48
50 -43 96 11 90 107 245 276 443 96 113 157 195 150 202 -5 4 -127 -38 -161
-56 -11 -6 -44 -32 -74 -59 -67 -61 -121 -98 -162 -110 -27 -7 -34 -5 -42 10
-6 10 -10 32 -10 48 0 41 -32 77 -95 106 -34 15 -55 31 -55 41 0 10 29 47 64
84 72 74 93 113 72 131 -20 16 -55 -4 -95 -55 -48 -60 -75 -74 -100 -51 -19
17 -24 16 -129 -37 -109 -55 -216 -87 -233 -70 -14 14 -60 184 -54 202 3 10
30 39 60 64 60 52 78 95 73 170 -3 39 -5 42 -32 40 -45 -3 -103 -48 -130 -101
-13 -26 -33 -90 -44 -142 -26 -119 -33 -139 -72 -183 -61 -70 -189 -87 -321
-42 -40 14 -96 28 -124 31 -46 6 -57 2 -137 -40 -96 -50 -118 -55 -118 -28 0
10 -11 33 -25 52 -14 19 -25 38 -25 42 0 14 37 9 50 -7 20 -24 22 -12 5 23
-20 39 -65 51 -100 28 -14 -9 -25 -22 -25 -28 0 -6 8 -4 18 5 20 19 37 23 27
7 -3 -5 -1 -10 5 -10 7 0 9 -8 5 -19 -3 -11 1 -24 10 -31 9 -8 23 -26 30 -41
13 -24 13 -28 0 -33 -9 -3 -24 3 -35 14 -22 22 -25 19 -10 -11 13 -24 -6 -26
-38 -3 -28 19 -29 38 -1 29 19 -6 19 -4 -6 35 l-27 42 17 69 17 69 66 0 c60 0
64 1 46 15 -10 8 -14 15 -9 15 6 1 -27 13 -73 29 -100 34 -127 57 -139 121 -7
32 -7 47 0 43 5 -3 7 0 5 8 -5 13 -36 15 -65 4 -8 -3 -13 -23 -13 -54 0 -44 4
-52 30 -71 43 -30 136 -70 168 -71 26 0 26 0 4 -9 -45 -19 -235 61 -217 91 3
4 -1 26 -9 48 -9 26 -10 43 -4 47 5 4 7 21 4 39 -4 21 -2 36 5 40 12 8 79 -3
221 -37 90 -21 138 -18 138 7 0 15 -31 25 -150 50 -41 9 -83 20 -93 26 -10 5
-21 7 -26 5 -14 -9 -82 14 -75 25 9 15 94 3 251 -35 54 -13 102 -20 107 -16
30 29 -47 61 -227 96 -53 10 -86 22 -84 28 6 17 79 8 205 -25 63 -16 118 -26
123 -23 18 11 8 35 -18 45 -47 19 -244 69 -269 69 -15 0 -24 6 -24 16 0 13 8
15 53 9 28 -4 90 -19 137 -32 47 -14 96 -28 109 -31 27 -6 45 16 29 35 -12 15
-147 58 -239 77 -33 6 -59 16 -57 21 5 17 80 7 188 -24 58 -17 111 -31 118
-31 14 0 16 36 2 45 -21 13 -214 67 -252 70 -45 4 -53 9 -43 24 10 17 77 5
200 -33 61 -18 113 -32 118 -29 4 2 7 12 7 22 0 13 -20 25 -77 44 -92 32 -186
57 -213 57 -11 0 -20 5 -20 10 0 21 95 9 197 -25 58 -19 109 -35 112 -35 4 0
8 11 9 24 1 22 -7 27 -114 62 -64 20 -128 38 -142 39 -49 3 -53 5 -47 15 12
19 86 10 189 -25 120 -40 136 -42 136 -17 0 24 -106 68 -220 92 l-85 17 0 39
c-1 22 5 48 12 59 23 34 17 45 -19 34 -21 -6 -34 -6 -36 1 -2 6 -18 4 -39 -5
-19 -8 -39 -12 -44 -9 -14 9 -49 -15 -43 -30 3 -8 -3 -19 -15 -25 -11 -6 -21
-23 -23 -38 -3 -23 -24 -43 -66 -59 -11 -4 14 -33 31 -36 20 -3 19 -5 -8 -18
-38 -19 -46 -50 -13 -50 23 -1 23 -1 3 -15 -51 -37 -59 -55 -24 -55 28 0 19
-23 -12 -30 -13 -3 -24 -11 -23 -18 3 -30 5 -34 19 -28 11 4 15 -1 15 -18 0
-17 -5 -22 -22 -22 -14 1 -24 -6 -26 -16 -2 -11 3 -18 12 -18 9 0 16 -7 16
-15 0 -8 -6 -15 -12 -15 -23 0 -39 -16 -32 -33 3 -9 13 -17 21 -17 23 0 9 -25
-15 -28 -25 -4 -31 -42 -7 -42 8 0 15 -7 15 -15 0 -8 -9 -15 -20 -15 -27 0
-38 -29 -17 -45 14 -10 15 -17 6 -45 -8 -23 -14 -28 -20 -19 -11 19 -27 2 -35
-38 -5 -26 -1 -37 30 -70 19 -21 36 -33 36 -26 0 7 15 -1 32 -18 35 -32 61
-40 35 -11 -31 34 -18 35 20 2 20 -18 57 -42 80 -52 37 -16 43 -23 37 -41 -10
-32 -11 -32 -41 4 -40 47 -62 69 -71 69 -12 0 -42 -56 -42 -78 0 -12 24 -47
53 -79 62 -67 77 -106 51 -134 -28 -31 -61 -23 -109 27 -36 37 -49 44 -67 39
-34 -11 -49 -26 -66 -65 -23 -57 -40 -70 -92 -70 -52 0 -120 38 -162 90 -41
53 -51 41 -43 -54 5 -70 4 -86 -10 -100 -27 -27 -61 -20 -73 13 -8 24 -54 61
-75 61 -2 0 -3 -33 -3 -74 1 -65 -2 -77 -23 -100 -32 -34 -77 -34 -165 -1 -37
14 -117 41 -179 61 -213 69 -264 104 -299 203 l-23 65 -80 17 c-44 10 -97 24
-117 33 -48 21 -48 20 -48 -9 0 -15 -9 -31 -25 -41 -35 -23 -31 -50 16 -97 22
-22 49 -53 59 -67 16 -23 30 -29 82 -34 170 -19 313 -70 366 -130 52 -59 45
-70 -41 -62 -40 4 -85 4 -100 1 -23 -6 -27 -13 -27 -42 0 -36 -14 -54 -98
-121 -25 -19 -45 -46 -50 -64 -6 -24 -16 -34 -45 -44 -21 -7 -58 -28 -83 -46
-34 -24 -56 -32 -85 -32 -47 2 -48 -7 -9 -66 33 -50 39 -97 14 -107 -9 -3 -41
6 -70 20 -59 29 -115 35 -133 13 -15 -18 -4 -27 93 -67 96 -40 150 -88 166
-148 6 -23 9 -49 6 -57 -3 -7 -28 -16 -56 -20 -55 -7 -68 -17 -50 -38 21 -26
28 -73 18 -122 -16 -84 -16 -118 -1 -162 18 -53 14 -58 -74 -103 -53 -27 -80
-34 -132 -36 l-65 -1 -22 -44 c-13 -24 -47 -79 -76 -123 l-53 -79 -160 -41
c-156 -39 -219 -65 -230 -93 -4 -11 0 -13 17 -8 153 44 219 47 284 16 64 -31
91 -105 64 -175 -6 -15 -8 -30 -6 -34 3 -4 49 0 103 10 182 33 299 22 338 -34
12 -18 12 -23 -5 -45 -50 -63 -47 -126 10 -216 35 -55 37 -66 11 -66 -23 0
-79 -45 -69 -55 4 -4 35 0 70 9 90 24 197 31 242 16 44 -14 70 -57 64 -106
l-4 -34 98 7 c54 3 98 3 98 -2 0 -4 -14 -24 -30 -45 -45 -57 -60 -101 -61
-182 0 -77 -17 -71 -18 6 l-1 40 -31 -30 c-46 -43 -118 -138 -134 -177 -8 -19
-22 -76 -32 -128 -13 -68 -19 -86 -22 -64 -4 27 -5 26 -17 -20 -11 -46 -12
-48 -13 -15 -1 25 -4 31 -12 23 -6 -6 -14 -52 -17 -101 -5 -100 6 -124 36 -72
23 42 179 283 222 344 108 152 301 356 338 356 9 0 -21 -35 -71 -81 -101 -94
-227 -247 -332 -404 -84 -127 -175 -279 -175 -294 0 -5 -6 -11 -12 -13 -13 -3
-145 -139 -210 -217 l-37 -44 -87 84 c-469 456 -768 1035 -875 1698 -30 183
-37 583 -15 781 79 691 369 1293 860 1786 499 500 1117 792 1835 869 160 17
494 12 661 -10z m1160 -2980 l0 -755 -1505 0 -1505 0 0 755 0 755 1505 0 1505
0 0 -755z m5 -1161 c28 -7 44 -35 55 -92 10 -55 -25 -340 -44 -357 -6 -5 -12
-17 -12 -25 -1 -8 -5 -24 -10 -34 -6 -15 -4 -17 6 -11 10 6 12 2 7 -16 -4 -13
-7 -29 -7 -36 0 -6 -6 -18 -13 -25 -7 -7 -18 -29 -24 -48 -6 -19 -19 -55 -28
-79 -15 -41 -15 -44 2 -58 17 -14 17 -14 1 -9 -10 3 -18 1 -18 -4 0 -18 -76
-31 -158 -28 l-83 3 40 62 c25 39 34 59 22 51 -10 -6 -30 -35 -45 -65 -24 -50
-46 -69 -46 -40 0 8 -3 8 -9 -2 -5 -8 -25 -19 -45 -26 -36 -13 -41 -10 -37 23
1 6 -2 12 -7 12 -6 0 -12 12 -15 28 -3 15 -14 53 -26 84 -44 125 -51 291 -15
360 18 34 18 35 47 -23 40 -79 70 -43 48 59 -11 56 -4 68 49 82 30 8 49 7 85
-5 25 -9 56 -15 68 -13 19 3 22 9 20 41 -1 21 -9 57 -17 80 -8 24 -17 59 -21
80 l-7 37 108 0 c60 0 118 -3 129 -6z m-2771 -166 c-170 -165 -263 -283 -418
-531 -17 -25 -32 -45 -34 -42 -9 9 111 198 201 319 95 127 335 376 362 376 9
0 -41 -55 -111 -122z m1971 -322 c50 -27 92 -86 107 -153 12 -50 14 -52 53
-59 52 -9 77 -25 64 -44 -16 -26 -10 -33 9 -10 28 35 35 3 10 -51 -19 -42 -21
-43 -31 -22 -9 20 -11 21 -22 7 -6 -9 -23 -17 -38 -17 -15 -1 -27 -5 -27 -8 0
-4 -25 -7 -55 -8 -30 0 -55 1 -55 4 0 2 3 11 6 20 5 12 9 13 14 5 5 -8 9 -7
13 5 5 10 3 14 -4 9 -7 -4 -10 -2 -8 5 3 7 8 12 13 11 8 -1 46 54 46 67 0 4
-11 -4 -26 -18 -18 -17 -23 -19 -18 -6 3 9 4 17 1 17 -3 0 -16 -27 -28 -60
-23 -63 -28 -67 -60 -50 -16 9 -17 15 -8 31 5 11 8 28 6 37 -3 12 -6 9 -11
-10 -5 -16 -13 -28 -20 -29 -6 0 -19 -2 -28 -4 -10 -2 -27 8 -38 22 -29 37
-15 42 20 8 22 -21 30 -25 30 -13 0 9 3 25 6 35 6 16 5 16 -9 -2 -15 -19 -17
-19 -32 -4 -21 20 -37 101 -29 138 6 25 6 25 -9 6 -16 -20 -16 -20 -17 4 0 20
-2 21 -15 11 -8 -7 -15 -23 -15 -36 0 -12 -4 -26 -10 -29 -6 -4 -10 5 -10 19
0 14 -4 26 -10 26 -5 0 -10 5 -10 11 0 6 6 9 14 6 9 -4 19 8 29 34 18 45 14
52 -6 13 -20 -37 -28 -16 -11 26 9 22 30 45 57 62 49 31 97 30 162 -6z"/>
<path d="M4229 6788 c50 -17 161 -128 161 -162 0 -14 5 -26 10 -26 6 0 4 -10
-4 -22 -7 -13 -17 -50 -21 -83 -7 -68 -12 -100 -15 -100 -2 0 -4 -29 -5 -65
-1 -36 -12 -101 -23 -145 -28 -113 -34 -160 -22 -190 8 -21 14 -25 28 -20 9 5
33 9 52 9 63 3 75 27 23 47 -31 11 -20 31 13 23 33 -8 45 22 15 42 -25 18 -28
37 -3 30 9 -3 24 -1 32 4 13 9 12 13 -7 29 -29 24 -30 45 -3 36 27 -9 40 23
17 40 -24 17 -21 35 6 32 17 -1 21 2 19 18 -2 11 -10 24 -18 28 -20 12 -6 29
17 22 15 -5 19 -1 19 18 0 14 -7 27 -15 31 -8 3 -15 12 -15 20 0 12 5 14 25 6
21 -8 25 -7 25 10 0 10 -8 25 -17 32 -18 13 -29 38 -17 38 3 0 15 -5 26 -11
19 -10 20 -9 14 17 -4 16 -12 31 -17 32 -5 2 -9 11 -9 20 0 47 -94 192 -124
192 -6 0 -31 11 -56 24 -25 13 -68 27 -95 30 -48 5 -49 5 -16 -6z"/>
<path d="M3372 6148 c-7 -7 -12 -42 -12 -89 0 -68 -3 -81 -25 -107 -27 -32
-77 -57 -98 -49 -8 3 -20 25 -26 50 -7 25 -26 61 -43 81 -32 40 -84 71 -92 57
-12 -18 57 -207 125 -344 29 -58 35 -65 39 -45 5 18 12 22 32 20 32 -4 53 24
63 83 4 22 11 53 17 68 10 25 15 28 54 26 25 -2 48 1 53 7 14 14 41 114 41
151 0 47 -25 81 -69 93 -45 12 -45 12 -59 -2z"/>
<path d="M3470 2269 c-14 -4 -68 -15 -120 -24 -120 -22 -278 -76 -445 -153
-204 -94 -335 -131 -529 -152 -55 -6 -102 -13 -105 -15 -14 -15 21 -17 123 -6
187 19 336 62 556 163 180 83 341 134 495 158 39 6 74 15 78 19 12 12 -24 19
-53 10z"/>
<path d="M3569 1728 c-46 -63 -54 -84 -110 -297 -3 -8 11 -18 33 -27 51 -18
63 -4 71 83 4 37 18 114 32 171 29 119 28 112 15 112 -5 0 -24 -19 -41 -42z"/>
<path d="M2600 4060 l0 -720 1470 0 1470 0 0 720 0 720 -1470 0 -1470 0 0
-720z m309 454 c38 -31 39 -41 6 -56 -20 -9 -28 -8 -43 5 -29 26 -78 22 -98
-8 -15 -23 -15 -27 0 -50 9 -14 43 -38 75 -55 99 -49 127 -106 93 -183 -31
-69 -115 -97 -195 -64 -36 16 -51 32 -61 64 -6 19 -2 25 19 33 22 9 29 6 49
-17 43 -50 129 -30 129 31 0 35 -13 48 -77 80 -97 49 -127 95 -110 165 20 78
147 111 213 55z m1014 -187 c53 -117 97 -215 97 -219 0 -5 -15 -8 -34 -8 -31
0 -35 4 -56 55 l-22 55 -88 0 -88 0 -23 -55 c-23 -52 -26 -55 -61 -55 l-37 0
33 73 c116 254 170 367 175 367 3 0 50 -96 104 -213z m875 38 l132 -130 0 148
0 147 30 0 30 0 0 -221 0 -221 -145 138 c-79 75 -151 146 -159 158 -13 19 -15
6 -15 -131 l-1 -153 -30 0 -30 0 0 222 0 221 28 -23 c15 -14 87 -83 160 -155z
m621 141 c22 -16 41 -31 41 -35 0 -3 -12 -14 -26 -25 -25 -18 -26 -18 -49 4
-29 27 -91 36 -138 21 -111 -37 -141 -202 -51 -280 61 -54 169 -51 214 6 35
45 27 62 -32 65 -49 3 -53 5 -56 31 l-3 27 90 0 91 0 0 -37 c-1 -46 -22 -107
-47 -135 -45 -51 -149 -72 -237 -47 -22 6 -56 28 -80 52 -109 110 -79 305 58
369 64 29 170 22 225 -16z m-2176 4 c55 -43 58 -140 7 -184 -20 -16 -47 -25
-89 -30 l-61 -7 0 -94 0 -95 -35 0 -35 0 0 215 0 215 94 0 c78 0 97 -3 119
-20z m345 -7 c-3 -28 -4 -28 -85 -31 l-83 -3 0 -49 0 -49 83 -3 82 -3 3 -32 3
-33 -86 0 -86 0 3 -67 3 -68 83 -3 82 -3 0 -29 0 -30 -120 0 -120 0 0 215 0
215 121 0 120 0 -3 -27z m552 -58 l5 -80 70 82 c68 81 71 83 114 83 l45 0 -30
-32 c-76 -82 -134 -150 -134 -157 0 -3 41 -58 90 -120 50 -63 90 -116 90 -118
0 -1 -19 -3 -43 -3 -42 0 -43 1 -121 105 -44 58 -82 105 -85 105 -3 0 -5 -36
-3 -81 5 -110 -1 -129 -38 -129 l-30 0 0 216 0 215 33 -3 32 -3 5 -80z m370
-130 l0 -215 -35 0 -35 0 0 215 0 215 35 0 35 0 0 -215z m-1113 -411 c12 -8
27 -22 32 -33 8 -15 5 -20 -16 -30 -21 -10 -29 -9 -43 4 -23 21 -89 16 -104
-7 -15 -25 4 -68 39 -87 131 -70 152 -96 142 -174 -4 -31 -15 -50 -41 -74 -32
-29 -42 -33 -94 -33 -38 0 -66 6 -82 17 -53 36 -65 74 -29 94 19 9 25 7 43
-15 30 -37 86 -46 115 -17 44 44 22 84 -77 137 -30 15 -62 39 -73 52 -25 32
-25 108 -1 140 37 47 134 61 189 26z m439 1 c69 -28 134 -129 134 -208 0 -86
-66 -182 -145 -212 -109 -42 -235 4 -288 105 -26 49 -28 63 -24 122 3 45 11
78 27 102 60 98 186 136 296 91z m1099 14 c69 -19 96 -57 55 -79 -16 -8 -26
-7 -42 5 -28 19 -82 20 -97 1 -7 -8 -11 -27 -9 -43 2 -22 14 -34 57 -58 30
-16 72 -47 94 -68 38 -36 39 -39 35 -88 -8 -75 -47 -111 -126 -117 -72 -5
-118 15 -137 61 -13 30 -12 33 10 44 21 12 27 10 55 -18 27 -27 36 -31 68 -25
20 3 43 13 49 23 31 41 6 81 -73 121 -94 47 -123 94 -103 165 11 41 25 54 76
73 47 16 40 16 88 3z m-825 -131 c1 -147 9 -202 37 -230 25 -24 85 -34 121
-19 50 21 57 42 62 216 l5 160 30 0 30 0 3 -160 c2 -149 1 -163 -20 -205 -30
-59 -72 -80 -158 -80 -75 0 -119 21 -150 72 -18 30 -20 51 -20 206 l0 172 30
0 30 0 0 -132z m452 -55 l3 -188 78 -3 77 -3 0 -29 0 -30 -115 0 -115 0 0 213
c0 118 3 217 7 220 3 4 19 7 34 7 l29 0 2 -187z"/>
<path d="M3660 3838 c-77 -53 -99 -138 -58 -218 31 -60 97 -95 159 -85 82 14
150 110 134 188 -23 113 -149 173 -235 115z"/>
</g>
</svg>
